HIERARCHY
ROOT Hips
{
	OFFSET 0.000000 71.427986 0.000000
	CHANNELS 6 Xposition Yposition Zposition Xrotation Yrotation Zrotation
	JOINT Pelvis
	{
		OFFSET 0.000000 0.000000 0.000000
		CHANNELS 3 Xrotation Yrotation Zrotation
		JOINT LeftUpLeg
		{
			OFFSET 6.797100 -2.508499 -1.318700
			CHANNELS 3 Xrotation Yrotation Zrotation
			JOINT LeftLeg
			{
				OFFSET 0.069008 -29.241863 0.690200
				CHANNELS 3 Xrotation Yrotation Zrotation
				JOINT LeftFoot
				{
					OFFSET -0.069008 -29.568123 -0.266800
					CHANNELS 3 Xrotation Yrotation Zrotation
					JOINT LeftToeBase
					{
						OFFSET 3.145500 -8.631000 16.059900
						CHANNELS 3 Xrotation Yrotation Zrotation
						End Site
						{
							OFFSET 0.000000 18.501587 0.000000
						}
					}
				}
			}
			JOINT Left_ShortSleeve
			{
				OFFSET 0.265923 -10.480953 1.153800
				CHANNELS 3 Xrotation Yrotation Zrotation
				End Site
				{
					OFFSET 1.725763 19.823879 0.000000
				}
			}
		}
		JOINT RightUpLeg
		{
			OFFSET -6.797100 -2.508499 -1.318700
			CHANNELS 3 Xrotation Yrotation Zrotation
			JOINT RightLeg
			{
				OFFSET -0.082453 -29.241932 0.688000
				CHANNELS 3 Xrotation Yrotation Zrotation
				JOINT RightFoot
				{
					OFFSET 0.082453 -29.568058 -0.264600
					CHANNELS 3 Xrotation Yrotation Zrotation
					JOINT RightToeBase
					{
						OFFSET -3.115300 -8.682800 16.113400
						CHANNELS 3 Xrotation Yrotation Zrotation
						End Site
						{
							OFFSET 0.000000 18.567114 0.000000
						}
					}
				}
			}
			JOINT Right_ShortSleeve
			{
				OFFSET -0.265923 -10.480953 1.153800
				CHANNELS 3 Xrotation Yrotation Zrotation
				End Site
				{
					OFFSET -1.725766 19.823910 0.000000
				}
			}
		}
	}
	JOINT Spine
	{
		OFFSET 0.000000 13.368103 0.470500
		CHANNELS 3 Xrotation Yrotation Zrotation
		JOINT Spine1
		{
			OFFSET 0.147000 13.837402 0.538800
			CHANNELS 3 Xrotation Yrotation Zrotation
			JOINT Spine2
			{
				OFFSET 0.168000 16.242897 -1.435500
				CHANNELS 3 Xrotation Yrotation Zrotation
				JOINT Neck
				{
					OFFSET 0.217200 18.631500 -1.679100
					CHANNELS 3 Xrotation Yrotation Zrotation
					JOINT Head
					{
						OFFSET 0.000000 6.599396 1.385900
						CHANNELS 3 Xrotation Yrotation Zrotation
						JOINT Hat
						{
							OFFSET -0.532200 27.220596 -10.096100
							CHANNELS 3 Xrotation Yrotation Zrotation
							End Site
							{
								OFFSET 0.000000 22.029861 0.000000
							}
						}
						JOINT HairD
						{
							OFFSET -10.777400 17.437393 -1.325900
							CHANNELS 3 Xrotation Yrotation Zrotation
							JOINT HairD1
							{
								OFFSET -3.290299 -11.051193 1.062200
								CHANNELS 3 Xrotation Yrotation Zrotation
								End Site
								{
									OFFSET 0.000000 11.579437 0.000000
								}
							}
						}
						JOINT HairB
						{
							OFFSET -10.777400 17.437393 1.467900
							CHANNELS 3 Xrotation Yrotation Zrotation
							JOINT HairB1
							{
								OFFSET -1.561200 -12.956299 3.590200
								CHANNELS 3 Xrotation Yrotation Zrotation
								End Site
								{
									OFFSET 0.000000 13.534866 0.000000
								}
							}
						}
						JOINT HairA
						{
							OFFSET 9.713100 17.437393 1.467900
							CHANNELS 3 Xrotation Yrotation Zrotation
							JOINT HairA1
							{
								OFFSET 1.561200 -12.956299 3.590200
								CHANNELS 3 Xrotation Yrotation Zrotation
								End Site
								{
									OFFSET 0.000000 13.534866 0.000000
								}
							}
						}
						JOINT HairC
						{
							OFFSET 9.713100 17.437393 -1.325900
							CHANNELS 3 Xrotation Yrotation Zrotation
							JOINT HairC1
							{
								OFFSET 3.290300 -11.051193 1.062200
								CHANNELS 3 Xrotation Yrotation Zrotation
								End Site
								{
									OFFSET 0.000000 11.579437 0.000000
								}
							}
						}
					}
				}
				JOINT LeftShoulder
				{
					OFFSET 5.101800 15.108002 -2.763700
					CHANNELS 3 Xrotation Yrotation Zrotation
					JOINT LeftArm
					{
						OFFSET 9.825497 2.506317 -1.597400
						CHANNELS 3 Xrotation Yrotation Zrotation
						JOINT LeftForeArm
						{
							OFFSET 21.966244 0.000000 0.000000
							CHANNELS 3 Xrotation Yrotation Zrotation
							JOINT LeftHand
							{
								OFFSET 33.879036 0.000000 0.000000
								CHANNELS 3 Xrotation Yrotation Zrotation
								JOINT LeftHandThumb1
								{
									OFFSET 6.715286 -2.359680 3.363841
									CHANNELS 3 Xrotation Yrotation Zrotation
									JOINT LeftHandThumb2
									{
										OFFSET 2.507072 -1.447464 1.447461
										CHANNELS 3 Xrotation Yrotation Zrotation
										JOINT LeftHandThumb3
										{
											OFFSET 2.898338 -1.673355 1.673357
											CHANNELS 3 Xrotation Yrotation Zrotation
											End Site
											{
												OFFSET -0.295959 3.727692 -0.131651
											}
										}
									}
								}
								JOINT LeftHandIndex1
								{
									OFFSET 14.190811 -0.254547 3.840278
									CHANNELS 3 Xrotation Yrotation Zrotation
									JOINT LeftHandIndex2
									{
										OFFSET 3.551727 0.000000 -0.000000
										CHANNELS 3 Xrotation Yrotation Zrotation
										JOINT LeftHandIndex3
										{
											OFFSET 2.894196 0.000000 0.000000
											CHANNELS 3 Xrotation Yrotation Zrotation
											End Site
											{
												OFFSET -1.000603 2.690872 0.366626
											}
										}
									}
								}
								JOINT LeftHandMiddle1
								{
									OFFSET 13.776489 0.000000 0.000000
									CHANNELS 3 Xrotation Yrotation Zrotation
									JOINT LeftHandMiddle2
									{
										OFFSET 3.438232 0.000000 0.000000
										CHANNELS 3 Xrotation Yrotation Zrotation
										JOINT LeftHandMiddle3
										{
											OFFSET 3.691551 0.000000 0.000000
											CHANNELS 3 Xrotation Yrotation Zrotation
											End Site
											{
												OFFSET -1.082298 3.499527 0.457670
											}
										}
									}
								}
								JOINT LeftHandRing1
								{
									OFFSET 13.966164 -0.268127 -3.067488
									CHANNELS 3 Xrotation Yrotation Zrotation
									JOINT LeftHandRing2
									{
										OFFSET 3.162567 0.000000 0.000000
										CHANNELS 3 Xrotation Yrotation Zrotation
										JOINT LeftHandRing3
										{
											OFFSET 3.324348 0.000000 0.000000
											CHANNELS 3 Xrotation Yrotation Zrotation
											End Site
											{
												OFFSET -0.861900 3.184998 0.405154
											}
										}
									}
								}
								JOINT LeftHandPinky1
								{
									OFFSET 13.131393 -0.168503 -5.746925
									CHANNELS 3 Xrotation Yrotation Zrotation
									JOINT LeftHandPinky2
									{
										OFFSET 2.849182 0.000000 0.000000
										CHANNELS 3 Xrotation Yrotation Zrotation
										JOINT LeftHandPinky3
										{
											OFFSET 2.805038 0.000000 0.000000
											CHANNELS 3 Xrotation Yrotation Zrotation
											End Site
											{
												OFFSET -0.882500 2.642609 0.325652
											}
										}
									}
								}
							}
							JOINT Left_Sleeve
							{
								OFFSET 6.592125 -0.646545 0.805568
								CHANNELS 3 Xrotation Yrotation Zrotation
								End Site
								{
									OFFSET -0.000179 20.275787 -0.000000
								}
							}
						}
					}
				}
				JOINT RightShoulder
				{
					OFFSET -5.731700 15.108002 -2.763700
					CHANNELS 3 Xrotation Yrotation Zrotation
					JOINT RightArm
					{
						OFFSET -9.825497 2.506317 -1.597400
						CHANNELS 3 Xrotation Yrotation Zrotation
						JOINT RightForeArm
						{
							OFFSET -21.966242 0.000000 0.000000
							CHANNELS 3 Xrotation Yrotation Zrotation
							JOINT RightHand
							{
								OFFSET -33.879032 0.000000 0.000000
								CHANNELS 3 Xrotation Yrotation Zrotation
								JOINT RightHandThumb1
								{
									OFFSET -6.715286 -2.359680 3.363841
									CHANNELS 3 Xrotation Yrotation Zrotation
									JOINT RightHandThumb2
									{
										OFFSET -2.507072 -1.447464 1.447461
										CHANNELS 3 Xrotation Yrotation Zrotation
										JOINT RightHandThumb3
										{
											OFFSET -2.898338 -1.673355 1.673357
											CHANNELS 3 Xrotation Yrotation Zrotation
											End Site
											{
												OFFSET 0.295959 3.727692 -0.131651
											}
										}
									}
								}
								JOINT RightHandIndex1
								{
									OFFSET -14.190811 -0.254547 3.840278
									CHANNELS 3 Xrotation Yrotation Zrotation
									JOINT RightHandIndex2
									{
										OFFSET -3.551727 0.000000 -0.000000
										CHANNELS 3 Xrotation Yrotation Zrotation
										JOINT RightHandIndex3
										{
											OFFSET -2.894196 0.000000 0.000000
											CHANNELS 3 Xrotation Yrotation Zrotation
											End Site
											{
												OFFSET 1.000603 2.690872 0.366626
											}
										}
									}
								}
								JOINT RightHandMiddle1
								{
									OFFSET -13.776489 0.000000 0.000000
									CHANNELS 3 Xrotation Yrotation Zrotation
									JOINT RightHandMiddle2
									{
										OFFSET -3.438232 0.000000 0.000000
										CHANNELS 3 Xrotation Yrotation Zrotation
										JOINT RightHandMiddle3
										{
											OFFSET -3.691551 0.000000 0.000000
											CHANNELS 3 Xrotation Yrotation Zrotation
											End Site
											{
												OFFSET 1.082298 3.499527 0.457670
											}
										}
									}
								}
								JOINT RightHandRing1
								{
									OFFSET -13.966164 -0.268127 -3.067488
									CHANNELS 3 Xrotation Yrotation Zrotation
									JOINT RightHandRing2
									{
										OFFSET -3.162567 0.000000 0.000000
										CHANNELS 3 Xrotation Yrotation Zrotation
										JOINT RightHandRing3
										{
											OFFSET -3.324348 0.000000 0.000000
											CHANNELS 3 Xrotation Yrotation Zrotation
											End Site
											{
												OFFSET 0.861900 3.184998 0.405154
											}
										}
									}
								}
								JOINT RightHandPinky1
								{
									OFFSET -13.131393 -0.168503 -5.746925
									CHANNELS 3 Xrotation Yrotation Zrotation
									JOINT RightHandPinky2
									{
										OFFSET -2.849182 0.000000 0.000000
										CHANNELS 3 Xrotation Yrotation Zrotation
										JOINT RightHandPinky3
										{
											OFFSET -2.805038 0.000000 0.000000
											CHANNELS 3 Xrotation Yrotation Zrotation
											End Site
											{
												OFFSET 0.882500 2.642609 0.325652
											}
										}
									}
								}
							}
							JOINT Right_Sleeve
							{
								OFFSET -6.592125 -0.646545 0.805568
								CHANNELS 3 Xrotation Yrotation Zrotation
								End Site
								{
									OFFSET 0.000179 20.275787 -0.000000
								}
							}
						}
					}
				}
				JOINT Bind_Right_JacketString
				{
					OFFSET -3.534800 11.969597 7.200700
					CHANNELS 3 Xrotation Yrotation Zrotation
					JOINT Bind_Right_JacketString1
					{
						OFFSET -0.319900 -6.102600 2.794100
						CHANNELS 3 Xrotation Yrotation Zrotation
						End Site
						{
							OFFSET 0.000000 6.719452 0.000000
						}
					}
				}
				JOINT Bind_Left_JacketString
				{
					OFFSET 2.904800 11.969597 7.200700
					CHANNELS 3 Xrotation Yrotation Zrotation
					JOINT Bind_Left_JacketString1
					{
						OFFSET 0.364800 -5.904503 3.186800
						CHANNELS 3 Xrotation Yrotation Zrotation
						End Site
						{
							OFFSET 0.000000 6.719513 0.000000
						}
					}
				}
				JOINT HairE
				{
					OFFSET 5.915200 17.612701 -11.592200
					CHANNELS 3 Xrotation Yrotation Zrotation
					JOINT HairE1
					{
						OFFSET 0.289200 -7.171898 -1.284500
						CHANNELS 3 Xrotation Yrotation Zrotation
						End Site
						{
							OFFSET 0.000000 7.291756 0.000000
						}
					}
				}
				JOINT HairF
				{
					OFFSET -0.864800 17.612701 -11.592200
					CHANNELS 3 Xrotation Yrotation Zrotation
					JOINT HairF1
					{
						OFFSET 0.000000 -14.087097 -2.127501
						CHANNELS 3 Xrotation Yrotation Zrotation
						End Site
						{
							OFFSET 0.000000 14.246841 0.000000
						}
					}
				}
				JOINT HairG
				{
					OFFSET -8.087700 17.612701 -11.592200
					CHANNELS 3 Xrotation Yrotation Zrotation
					JOINT HairG1
					{
						OFFSET -0.293600 -6.081398 -0.910100
						CHANNELS 3 Xrotation Yrotation Zrotation
						End Site
						{
							OFFSET 0.000000 6.156120 0.000000
						}
					}
				}
			}
		}
	}
	JOINT Pouch
	{
		OFFSET 0.000000 4.394501 10.847300
		CHANNELS 3 Xrotation Yrotation Zrotation
		End Site
		{
			OFFSET 0.000000 21.880577 0.000000
		}
	}
	JOINT Bag
	{
		OFFSET -13.229000 4.813004 -0.593300
		CHANNELS 3 Xrotation Yrotation Zrotation
		End Site
		{
			OFFSET 0.000000 21.880577 0.000000
		}
	}
	JOINT OccupyGuyFacialAnim_Joint
	{
		OFFSET 1.000000 -70.206398 -1.655000
		CHANNELS 3 Xrotation Yrotation Zrotation
		End Site
		{
			OFFSET 0.000000 21.880577 0.000000
		}
	}
}
MOTION
Frames: 4
Frame Time: 0.033333
0.101746 66.165672 1.725863 8.224155 -2.232083 3.413051 -0.000000 0.000000 0.000000 -23.188009 8.044949 3.240446 70.429933 1.654235 -0.060955 4.974110 -0.255107 0.771221 0.000000 -0.000000 0.000000 0.000001 0.000000 -0.000000 8.629831 -1.957854 -5.818967 24.437857 5.151749 0.395188 -33.075488 -2.782253 -0.430087 -0.000001 -0.000000 0.000000 -0.000001 -0.000000 -0.000001 12.507023 1.854936 -0.447189 9.062119 3.712125 -0.742988 -2.810867 3.785494 0.037546 -18.866063 -2.832292 -3.291550 -2.229226 -3.756370 -1.546832 0.000001 0.000000 0.000000 0.000001 0.000000 0.000000 0.000001 0.000000 0.000000 0.000001 0.000000 0.000000 0.000001 0.000000 0.000000 0.000001 0.000000 0.000000 0.000001 0.000000 0.000000 0.000001 0.000000 0.000000 0.000001 0.000000 0.000000 0.619573 -5.285211 -7.462496 18.491462 6.609487 -69.405247 -49.878293 -71.843352 -41.029076 1.021081 -16.760152 -11.545284 16.022681 -12.317724 2.281309 35.532358 41.360938 -28.927385 0.000001 -0.000002 0.000001 2.945850 -13.960486 -65.948120 -2.810882 -2.115328 -110.017484 0.000001 -0.000000 0.000002 -2.455358 4.881056 -71.899004 -2.136719 -2.215524 -87.998122 -0.000001 0.000003 -0.000001 -4.836500 10.268283 -83.288221 -1.627041 -2.156114 -73.988256 0.000001 -0.000002 -0.000003 -3.167944 24.959571 -79.169057 -1.844507 -2.147713 -84.995065 -0.000001 0.000001 -0.000000 0.000001 -0.000000 -0.000000 10.993856 -6.871725 12.230724 -15.072079 25.483887 47.280407 -32.098819 83.160982 26.885838 3.902757 27.520579 -6.803918 16.022645 12.317726 -2.281280 35.532406 -41.360989 28.927357 0.000003 0.000001 0.000000 2.945828 13.960477 65.948133 -2.810855 2.115330 110.017463 0.000002 -0.000001 0.000000 -2.455339 -4.881062 71.899024 -2.136719 2.215544 87.998163 0.000001 -0.000000 -0.000003 -4.836497 -10.268264 83.288249 -1.627058 2.156100 73.988277 0.000001 0.000000 -0.000000 -3.167957 -24.959569 79.169057 -1.844491 2.147704 84.995045 -0.000001 -0.000000 -0.000001 0.000001 0.000001 0.000001 0.000000 -0.000001 0.000000 0.000000 0.000000 0.000000 0.000000 -0.000001 0.000000 0.000000 -0.000001 0.000000 0.000000 -0.000001 0.000000 0.000000 0.000000 0.000000 0.000000 -0.000001 0.000000 0.000000 -0.000001 0.000000 0.000000 -0.000001 0.000000 0.000000 0.000000 0.000000 -0.000000 0.000000 0.000000 -0.000000 0.000000 0.000000 -0.000000 0.000000 0.000000 
0.714664 67.564575 6.955832 8.967581 -0.102034 4.144466 -0.000001 -0.000000 -0.000000 -30.213939 6.873350 1.573661 68.396763 -0.751317 -0.649384 -4.135493 -0.876763 3.623915 0.000002 -0.000000 -0.000000 -0.000003 0.000000 0.000000 10.000594 -4.625690 -6.953557 24.136043 4.396876 0.402875 -19.678820 -3.098239 1.477449 0.000000 -0.000000 -0.000000 0.000000 -0.000000 -0.000000 12.077536 2.423918 -0.762660 8.217617 4.905403 -1.350005 -3.674149 5.077964 -0.309616 -18.059812 -4.451429 -5.164118 -0.833124 -6.340170 0.319436 0.000000 0.000000 -0.000000 0.000000 0.000000 -0.000000 0.000000 0.000000 -0.000000 0.000000 0.000000 -0.000000 0.000000 0.000000 -0.000000 0.000000 0.000000 -0.000000 0.000000 0.000000 -0.000000 0.000000 0.000000 -0.000000 0.000000 0.000000 -0.000000 0.623567 -5.584750 -7.457544 19.148435 5.565070 -69.408369 -35.657108 -68.742412 -28.747651 1.035518 -16.810200 -11.203499 16.022676 -12.317723 2.281311 35.532358 41.360931 -28.927385 0.000001 -0.000000 -0.000000 2.945850 -13.960486 -65.948120 -2.810887 -2.115328 -110.017484 0.000001 -0.000000 0.000003 -2.455358 4.881056 -71.899004 -2.136706 -2.215524 -87.998115 0.000001 0.000006 0.000003 -4.836502 10.268286 -83.288221 -1.627040 -2.156114 -73.988263 0.000002 0.000000 0.000002 -3.167947 24.959564 -79.169064 -1.844509 -2.147716 -84.995065 -0.000002 0.000000 -0.000002 -0.000000 -0.000001 -0.000001 11.156855 -7.146663 12.735326 -14.526366 23.942581 45.009044 -72.999170 86.362087 66.659436 3.725836 27.949663 -5.933977 16.022654 12.317725 -2.281282 35.532410 -41.360982 28.927357 -0.000000 0.000000 0.000001 2.945833 13.960480 65.948133 -2.810858 2.115333 110.017463 0.000000 0.000001 0.000002 -2.455336 -4.881062 71.899024 -2.136722 2.215546 87.998163 0.000002 -0.000001 0.000001 -4.836495 -10.268264 83.288242 -1.627060 2.156100 73.988277 0.000000 0.000000 -0.000003 -3.167952 -24.959571 79.169051 -1.844490 2.147702 84.995045 0.000004 0.000000 -0.000001 0.000003 -0.000002 0.000001 0.000002 0.000000 -0.000001 -0.000000 0.000000 0.000000 0.000002 0.000000 -0.000001 0.000002 0.000000 -0.000001 0.000002 0.000000 -0.000001 -0.000000 0.000000 0.000000 0.000002 0.000000 -0.000001 0.000002 0.000000 -0.000001 0.000002 0.000000 -0.000001 -0.000000 0.000000 0.000000 -0.000001 -0.000000 -0.000000 -0.000001 -0.000000 -0.000000 -0.000001 -0.000000 -0.000000 
1.283935 68.922821 12.880619 9.705697 1.885058 4.651616 -0.000000 -0.000000 0.000000 -34.286641 6.069812 -0.757130 60.279063 -0.979806 -0.715931 -6.517977 -4.235295 5.940925 0.000001 0.000000 0.000000 0.000001 -0.000000 -0.000000 7.892534 -7.479586 -8.473934 29.500987 2.493293 0.330895 -4.056253 -1.257670 3.818522 -0.000002 0.000000 -0.000000 -0.000001 0.000000 -0.000000 11.784568 3.045768 -1.072052 7.651190 6.201503 -1.915420 -4.266725 6.462371 -0.593810 -17.603190 -6.278444 -6.876640 0.346057 -8.825748 1.762445 0.000000 0.000000 0.000000 0.000000 0.000000 0.000000 0.000000 0.000000 0.000000 0.000000 0.000000 0.000000 0.000000 -0.000000 0.000000 0.000000 0.000000 0.000000 0.000000 -0.000000 0.000000 0.000000 0.000000 0.000000 0.000000 0.000000 0.000000 0.629944 -5.420013 -7.524425 18.812843 4.077095 -68.989104 -25.725948 -63.426557 -21.050904 1.017771 -17.029801 -10.786268 16.022674 -12.317722 2.281309 35.532358 41.360931 -28.927374 -0.000000 0.000001 0.000000 2.945848 -13.960487 -65.948120 -2.810887 -2.115329 -110.017484 -0.000002 -0.000002 -0.000002 -2.455358 4.881050 -71.899004 -2.136709 -2.215525 -87.998115 -0.000001 0.000001 -0.000001 -4.836502 10.268286 -83.288228 -1.627044 -2.156112 -73.988256 -0.000001 -0.000001 -0.000001 -3.167945 24.959567 -79.169064 -1.844509 -2.147715 -84.995058 0.000001 -0.000001 -0.000002 0.000001 0.000002 -0.000002 11.315241 -7.337833 13.233160 -14.811304 23.031060 42.549616 -134.186279 84.659566 126.553898 3.633775 28.199957 -5.485211 16.022645 12.317727 -2.281283 35.532403 -41.360989 28.927357 0.000002 0.000000 -0.000000 2.945833 13.960481 65.948133 -2.810853 2.115332 110.017463 0.000001 -0.000001 0.000002 -2.455340 -4.881058 71.899024 -2.136721 2.215546 87.998163 0.000000 -0.000001 -0.000001 -4.836499 -10.268258 83.288242 -1.627057 2.156101 73.988277 -0.000000 -0.000002 -0.000003 -3.167957 -24.959569 79.169051 -1.844491 2.147700 84.995045 0.000001 0.000001 -0.000001 0.000001 0.000000 -0.000000 -0.000001 -0.000000 0.000000 0.000001 -0.000000 0.000000 -0.000001 -0.000000 -0.000000 -0.000001 -0.000000 -0.000000 -0.000001 -0.000000 0.000000 0.000001 -0.000000 0.000000 -0.000001 -0.000000 -0.000000 -0.000001 -0.000000 -0.000000 -0.000001 -0.000000 0.000000 0.000001 -0.000000 0.000000 -0.000000 -0.000000 0.000000 -0.000000 -0.000000 0.000000 -0.000000 -0.000000 0.000000 
1.803227 69.926109 18.976810 10.086243 3.365453 4.802529 -0.000000 -0.000000 -0.000000 -37.842188 5.497842 -2.350113 50.068780 -3.616680 -0.559725 -6.259001 -4.013487 5.626813 -0.000002 0.000000 0.000000 -0.000001 -0.000000 -0.000001 15.870607 -6.703680 -6.796734 16.611968 2.570099 0.125691 15.216432 -3.349964 5.157918 0.000002 0.000001 -0.000001 0.000001 -0.000000 -0.000001 11.729988 3.576307 -1.278825 7.566458 7.327723 -2.384420 -4.379169 7.660632 -0.817883 -17.418097 -7.878301 -8.162107 1.104821 -10.775951 2.764989 0.000001 0.000000 -0.000000 0.000001 0.000000 -0.000000 0.000001 0.000000 -0.000000 0.000001 0.000000 -0.000000 0.000001 -0.000000 -0.000000 0.000001 0.000000 -0.000000 0.000001 -0.000000 -0.000000 0.000001 0.000000 -0.000000 0.000001 0.000000 -0.000000 0.617843 -4.993448 -7.499734 17.551107 2.404725 -68.309569 -18.383440 -57.868566 -15.944855 0.985489 -17.360043 -10.272966 16.022678 -12.317721 2.281308 35.532362 41.360931 -28.927374 0.000000 0.000001 0.000002 2.945851 -13.960485 -65.948113 -2.810889 -2.115326 -110.017484 0.000004 -0.000002 -0.000004 -2.455358 4.881055 -71.899004 -2.136710 -2.215524 -87.998122 0.000001 -0.000000 -0.000001 -4.836501 10.268286 -83.288228 -1.627049 -2.156116 -73.988263 -0.000003 0.000000 -0.000001 -3.167945 24.959572 -79.169057 -1.844507 -2.147716 -84.995058 0.000001 0.000002 -0.000000 0.000001 0.000001 -0.000001 11.412619 -7.351364 13.643142 -16.035886 23.035926 40.571283 -149.081228 81.322589 140.237977 3.626421 28.476153 -5.391575 16.022649 12.317727 -2.281277 35.532406 -41.360982 28.927357 0.000004 -0.000001 0.000003 2.945832 13.960481 65.948133 -2.810856 2.115331 110.017456 -0.000001 -0.000003 -0.000000 -2.455339 -4.881062 71.899031 -2.136717 2.215544 87.998170 -0.000001 -0.000002 0.000001 -4.836498 -10.268266 83.288249 -1.627060 2.156101 73.988277 -0.000000 -0.000001 -0.000001 -3.167953 -24.959572 79.169057 -1.844489 2.147704 84.995038 -0.000001 0.000001 -0.000001 0.000001 0.000001 0.000002 0.000000 0.000002 0.000000 0.000000 0.000000 0.000000 0.000000 0.000002 0.000000 0.000000 0.000002 0.000000 0.000000 0.000002 0.000000 0.000000 0.000000 0.000000 0.000000 0.000002 0.000000 0.000000 0.000002 0.000000 0.000000 0.000002 0.000000 0.000000 0.000000 0.000000 -0.000000 -0.000000 -0.000000 -0.000000 -0.000000 -0.000000 -0.000000 -0.000000 -0.000000 
